<?xml version="1.0" encoding="utf-8"?>
<!-- Generator: Adobe Illustrator 18.1.1, SVG Export Plug-In . SVG Version: 6.00 Build 0)  -->
<svg version="1.0" id="v2.8_Servo_Eddition" xmlns="http://www.w3.org/2000/svg" xmlns:xlink="http://www.w3.org/1999/xlink"
	 x="0px" y="0px" width="739.355px" height="953.763px" viewBox="0 0 739.355 953.763" enable-background="new 0 0 739.355 953.763"
	 xml:space="preserve">
<g>
	
		<rect x="89.865" y="774.335" fill="none" stroke="#0000FF" stroke-width="0.01" stroke-miterlimit="10" width="13.748" height="41.584"/>
	
		<rect x="335.813" y="774.335" fill="none" stroke="#0000FF" stroke-width="0.01" stroke-miterlimit="10" width="13.748" height="41.584"/>
	
		<rect x="29.08" y="710.199" fill="none" stroke="#0000FF" stroke-width="0.01" stroke-miterlimit="10" width="381.265" height="169.856"/>
</g>
<g>
	<path fill="none" stroke="#231F20" stroke-width="0.01" stroke-miterlimit="10" d="M595.245,430.437
		c0,0.333,0.064,0.643,0.191,0.931c0.128,0.289,0.301,0.543,0.521,0.763c0.221,0.22,0.475,0.394,0.763,0.521
		c0.289,0.127,0.6,0.19,0.933,0.19h7.131c0.332,0,0.645-0.063,0.938-0.19c0.294-0.127,0.55-0.301,0.77-0.521
		c0.221-0.22,0.394-0.474,0.521-0.763c0.128-0.288,0.191-0.599,0.191-0.931v-1.952c0-0.332-0.063-0.648-0.191-0.946
		c-0.127-0.298-0.3-0.555-0.521-0.77c-0.22-0.215-0.476-0.387-0.77-0.514c-0.294-0.127-0.607-0.19-0.938-0.19h-6.193
		c-0.245,0-0.504,0.042-0.777,0.125c-0.275,0.083-0.541,0.193-0.8,0.33c-0.259,0.137-0.506,0.301-0.74,0.491
		c-0.235,0.191-0.431,0.394-0.588,0.609v-5.355h11.122h-11.122v5.355c0.156-0.215,0.352-0.418,0.588-0.609
		c0.234-0.19,0.481-0.355,0.74-0.491c0.259-0.137,0.525-0.247,0.8-0.33c0.273-0.083,0.533-0.125,0.777-0.125h6.193
		c0.332,0,0.645,0.064,0.938,0.19c0.294,0.127,0.55,0.299,0.77,0.514c0.221,0.215,0.394,0.472,0.521,0.77
		c0.128,0.299,0.191,0.614,0.191,0.946v1.952c0,0.333-0.063,0.643-0.191,0.931c-0.127,0.289-0.3,0.543-0.521,0.763
		c-0.22,0.22-0.476,0.394-0.77,0.521c-0.294,0.127-0.607,0.19-0.938,0.19h-7.131c-0.333,0-0.644-0.063-0.933-0.19
		c-0.288-0.127-0.542-0.301-0.763-0.521c-0.22-0.22-0.393-0.474-0.521-0.763C595.309,431.08,595.245,430.77,595.245,430.437z"/>
	<path fill="none" stroke="#231F20" stroke-width="0.01" stroke-miterlimit="10" d="M611.59,432.843v-10.579h0.793l7.043,10.579
		h0.631l7.087-10.579h0.749v10.579v-10.579h-0.749l-7.087,10.579h-0.631l-7.043-10.579h-0.793V432.843z"/>
	<path fill="none" stroke="#231F20" stroke-width="0.01" stroke-miterlimit="10" d="M633.805,432.843v-10.579h0.793l7.043,10.579
		h0.63l7.087-10.579h0.749v10.579v-10.579h-0.749l-7.087,10.579h-0.63l-7.043-10.579h-0.793V432.843z"/>
</g>
<g>
	<g>
		<path fill="none" stroke="#474747" stroke-width="0.01" stroke-miterlimit="10" d="M562.364,450.522
			c0,0.235,0.041,0.453,0.124,0.653c0.084,0.201,0.226,0.373,0.426,0.513c0.199,0.142,0.458,0.252,0.777,0.331
			c0.318,0.078,0.712,0.117,1.181,0.117h6.471c0.332,0,0.682-0.044,1.05-0.133c0.367-0.087,0.699-0.215,0.997-0.381
			c0.299-0.166,0.546-0.364,0.742-0.595c0.195-0.229,0.292-0.491,0.292-0.785v-1.687c0-0.254-0.063-0.48-0.19-0.676
			c-0.128-0.195-0.287-0.364-0.478-0.505c-0.19-0.142-0.404-0.25-0.638-0.324c-0.235-0.073-0.46-0.115-0.675-0.124l-8.115-0.25
			c-0.509-0.01-0.87-0.154-1.085-0.433c-0.215-0.278-0.322-0.652-0.322-1.122v-1.585c0-0.342,0.063-0.638,0.19-0.887
			c0.128-0.25,0.331-0.455,0.609-0.616c0.279-0.161,0.646-0.279,1.101-0.352c0.455-0.074,1.01-0.11,1.666-0.11h4.929
			c0.382,0,0.73,0.024,1.042,0.073c0.313,0.049,0.581,0.133,0.807,0.25c0.224,0.117,0.401,0.271,0.528,0.462
			c0.127,0.191,0.191,0.423,0.191,0.697v0.91v-0.91c0-0.275-0.065-0.506-0.191-0.697c-0.127-0.191-0.303-0.345-0.528-0.462
			c-0.226-0.117-0.494-0.201-0.807-0.25c-0.313-0.049-0.66-0.073-1.042-0.073h-4.929c-0.656,0-1.211,0.036-1.666,0.11
			c-0.455,0.073-0.821,0.191-1.101,0.352c-0.278,0.161-0.481,0.367-0.609,0.616c-0.127,0.25-0.19,0.546-0.19,0.887v1.585
			c0,0.47,0.107,0.844,0.322,1.122c0.215,0.279,0.577,0.424,1.085,0.433l8.115,0.25c0.215,0.01,0.439,0.051,0.675,0.124
			c0.234,0.074,0.448,0.182,0.638,0.324c0.191,0.141,0.35,0.31,0.478,0.505c0.127,0.196,0.19,0.421,0.19,0.676v1.687
			c0,0.294-0.098,0.555-0.292,0.785c-0.196,0.23-0.443,0.429-0.742,0.595c-0.298,0.166-0.63,0.294-0.997,0.381
			c-0.368,0.088-0.718,0.133-1.05,0.133h-6.471c-0.469,0-0.863-0.039-1.181-0.117c-0.319-0.079-0.578-0.189-0.777-0.331
			c-0.201-0.141-0.343-0.313-0.426-0.513C562.404,450.974,562.364,450.757,562.364,450.522v-0.924V450.522z"/>
		<path fill="none" stroke="#474747" stroke-width="0.01" stroke-miterlimit="10" d="M589.845,449.656
			c0.01,0.303-0.021,0.604-0.095,0.903c-0.073,0.298-0.192,0.562-0.359,0.793c-0.166,0.229-0.386,0.416-0.66,0.558
			c-0.273,0.141-0.601,0.213-0.983,0.213h-7.967c-0.46,0-0.832-0.074-1.115-0.221c-0.284-0.146-0.504-0.337-0.66-0.572
			c-0.156-0.234-0.266-0.499-0.331-0.792c-0.063-0.294-0.1-0.587-0.11-0.881v-8.099v8.099c0.01,0.294,0.047,0.588,0.11,0.881
			c0.065,0.293,0.174,0.558,0.331,0.792c0.156,0.235,0.376,0.426,0.66,0.572c0.283,0.147,0.656,0.221,1.115,0.221h7.967
			c0.382,0,0.709-0.072,0.983-0.213c0.275-0.142,0.494-0.328,0.66-0.558c0.167-0.23,0.287-0.494,0.359-0.793
			C589.824,450.26,589.855,449.96,589.845,449.656v-8.099V449.656z"/>
		<path fill="none" stroke="#474747" stroke-width="0.01" stroke-miterlimit="10" d="M594.291,452.136v-10.58h0.793l7.043,10.58
			h0.63l7.087-10.58h0.749v10.58v-10.58h-0.749l-7.087,10.58h-0.63l-7.043-10.58h-0.793V452.136z"/>
		<path fill="none" stroke="#474747" stroke-width="0.01" stroke-miterlimit="10" d="M618.781,452.136
			c-0.49,0-0.947-0.083-1.372-0.25c-0.425-0.166-0.798-0.396-1.115-0.689c-0.318-0.294-0.57-0.634-0.756-1.02
			c-0.186-0.387-0.278-0.8-0.278-1.241v-4.167c0-0.439,0.092-0.852,0.278-1.239c0.186-0.386,0.438-0.726,0.756-1.02
			c0.318-0.294,0.69-0.523,1.115-0.689c0.425-0.167,0.882-0.25,1.372-0.25h6.779c0.479,0,0.934,0.082,1.365,0.25
			c0.43,0.166,0.807,0.395,1.13,0.689c0.322,0.294,0.577,0.634,0.763,1.02c0.185,0.387,0.278,0.8,0.278,1.239v4.167
			c0,0.441-0.093,0.854-0.278,1.241c-0.186,0.386-0.441,0.726-0.763,1.02c-0.322,0.292-0.7,0.523-1.13,0.689
			c-0.431,0.166-0.886,0.25-1.365,0.25H618.781z M618.781,452.136c-0.49,0-0.947-0.083-1.372-0.25
			c-0.425-0.166-0.798-0.396-1.115-0.689c-0.318-0.294-0.57-0.634-0.756-1.02c-0.186-0.387-0.278-0.8-0.278-1.241v-4.167
			c0-0.439,0.092-0.852,0.278-1.239c0.186-0.386,0.438-0.726,0.756-1.02c0.318-0.294,0.69-0.523,1.115-0.689
			c0.425-0.167,0.882-0.25,1.372-0.25h6.779c0.479,0,0.934,0.082,1.365,0.25c0.43,0.166,0.807,0.395,1.13,0.689
			c0.322,0.294,0.577,0.634,0.763,1.02c0.185,0.387,0.278,0.8,0.278,1.239v4.167c0,0.441-0.093,0.854-0.278,1.241
			c-0.186,0.386-0.441,0.726-0.763,1.02c-0.322,0.292-0.7,0.523-1.13,0.689c-0.431,0.166-0.886,0.25-1.365,0.25H618.781z"/>
		<path fill="none" stroke="#474747" stroke-width="0.01" stroke-miterlimit="10" d="M651.772,446.73
			c0.25,0.103,0.464,0.247,0.646,0.432c0.181,0.186,0.325,0.401,0.433,0.646c0.107,0.245,0.161,0.504,0.161,0.777v1.526
			c0,0.284-0.054,0.548-0.161,0.793c-0.109,0.245-0.252,0.457-0.433,0.638c-0.182,0.182-0.396,0.326-0.646,0.433
			c-0.248,0.107-0.511,0.161-0.784,0.161h-10.081v-5.561h9.581c0.264,0,0.514-0.049,0.749-0.147
			c0.235-0.098,0.441-0.235,0.616-0.411c0.177-0.177,0.315-0.378,0.418-0.609c0.103-0.229,0.154-0.477,0.154-0.742v-1.188
			c0-0.264-0.051-0.511-0.154-0.74c-0.103-0.23-0.241-0.433-0.418-0.609c-0.176-0.177-0.381-0.313-0.616-0.411
			c-0.235-0.098-0.485-0.147-0.749-0.147h-9.581v5.003v-5.003h9.581c0.264,0,0.514,0.049,0.749,0.147
			c0.235,0.098,0.441,0.234,0.616,0.411c0.177,0.176,0.315,0.379,0.418,0.609c0.103,0.229,0.154,0.476,0.154,0.74v1.188
			c0,0.265-0.051,0.512-0.154,0.742c-0.103,0.23-0.241,0.432-0.418,0.609c-0.176,0.176-0.381,0.313-0.616,0.411
			c-0.235,0.098-0.485,0.147-0.749,0.147h-9.581v5.561h10.081c0.273,0,0.536-0.054,0.784-0.161c0.25-0.107,0.464-0.252,0.646-0.433
			c0.181-0.18,0.325-0.393,0.433-0.638c0.107-0.245,0.161-0.509,0.161-0.793v-1.526c0-0.273-0.054-0.533-0.161-0.777
			c-0.109-0.245-0.252-0.46-0.433-0.646C652.236,446.977,652.022,446.832,651.772,446.73c-0.248-0.103-0.511-0.154-0.784-0.154
			C651.261,446.575,651.523,446.627,651.772,446.73z"/>
		<path fill="none" stroke="#474747" stroke-width="0.01" stroke-miterlimit="10" d="M659.732,452.136
			c-0.488,0-0.946-0.083-1.372-0.25c-0.425-0.166-0.796-0.396-1.114-0.689c-0.319-0.294-0.571-0.634-0.756-1.02
			c-0.186-0.387-0.28-0.8-0.28-1.241v-4.167c0-0.439,0.093-0.852,0.28-1.239c0.185-0.386,0.437-0.726,0.756-1.02
			c0.318-0.294,0.689-0.523,1.114-0.689c0.426-0.167,0.884-0.25,1.372-0.25h6.779c0.48,0,0.935,0.082,1.365,0.25
			c0.431,0.166,0.807,0.395,1.13,0.689c0.324,0.294,0.578,0.634,0.763,1.02c0.186,0.387,0.279,0.8,0.279,1.239v4.167
			c0,0.441-0.093,0.854-0.279,1.241c-0.185,0.386-0.439,0.726-0.763,1.02c-0.322,0.292-0.699,0.523-1.13,0.689
			c-0.43,0.166-0.885,0.25-1.365,0.25H659.732z M659.732,452.136c-0.488,0-0.946-0.083-1.372-0.25
			c-0.425-0.166-0.796-0.396-1.114-0.689c-0.319-0.294-0.571-0.634-0.756-1.02c-0.186-0.387-0.28-0.8-0.28-1.241v-4.167
			c0-0.439,0.093-0.852,0.28-1.239c0.185-0.386,0.437-0.726,0.756-1.02c0.318-0.294,0.689-0.523,1.114-0.689
			c0.426-0.167,0.884-0.25,1.372-0.25h6.779c0.48,0,0.935,0.082,1.365,0.25c0.431,0.166,0.807,0.395,1.13,0.689
			c0.324,0.294,0.578,0.634,0.763,1.02c0.186,0.387,0.279,0.8,0.279,1.239v4.167c0,0.441-0.093,0.854-0.279,1.241
			c-0.185,0.386-0.439,0.726-0.763,1.02c-0.322,0.292-0.699,0.523-1.13,0.689c-0.43,0.166-0.885,0.25-1.365,0.25H659.732z"/>
		<path fill="none" stroke="#474747" stroke-width="0.01" stroke-miterlimit="10" d="M679.306,441.572h6.016h-12.047H679.306v10.564
			V441.572z"/>
		<path fill="none" stroke="#474747" stroke-width="0.01" stroke-miterlimit="10" d="M705.585,441.542v7.908
			c0,0.362-0.073,0.704-0.22,1.027c-0.147,0.324-0.345,0.607-0.595,0.851c-0.25,0.245-0.533,0.438-0.85,0.58
			c-0.319,0.141-0.653,0.213-1.005,0.213l-4.373,0.014c-0.352,0-0.693-0.07-1.02-0.212c-0.327-0.142-0.621-0.333-0.88-0.572
			c-0.259-0.24-0.464-0.522-0.616-0.844c-0.152-0.322-0.228-0.67-0.228-1.041v-0.91v0.91c0,0.371,0.076,0.719,0.228,1.041
			c0.152,0.322,0.357,0.604,0.616,0.844c0.259,0.239,0.553,0.43,0.88,0.572c0.327,0.142,0.668,0.212,1.02,0.212l4.373-0.014
			c0.352,0,0.687-0.072,1.005-0.213c0.318-0.142,0.601-0.336,0.85-0.58c0.25-0.245,0.448-0.528,0.595-0.851
			c0.147-0.322,0.22-0.665,0.22-1.027V441.542z"/>
		<path fill="none" stroke="#474747" stroke-width="0.01" stroke-miterlimit="10" d="M709.855,452.136v-10.564h9.845
			c0.235,0,0.464,0.058,0.689,0.175c0.226,0.117,0.424,0.275,0.595,0.469c0.171,0.196,0.308,0.429,0.411,0.697
			c0.103,0.269,0.154,0.555,0.154,0.858v1.512c0,0.303-0.051,0.586-0.154,0.85c-0.103,0.264-0.24,0.494-0.411,0.69
			c-0.171,0.196-0.369,0.35-0.595,0.462c-0.224,0.112-0.454,0.168-0.689,0.168h-9.845h9.845c0.235,0,0.464-0.056,0.689-0.168
			c0.226-0.112,0.424-0.266,0.595-0.462c0.171-0.196,0.308-0.426,0.411-0.69c0.103-0.264,0.154-0.547,0.154-0.85v-1.512
			c0-0.303-0.051-0.59-0.154-0.858c-0.103-0.269-0.24-0.502-0.411-0.697c-0.171-0.195-0.369-0.352-0.595-0.469
			c-0.224-0.117-0.454-0.175-0.689-0.175h-9.845V452.136z M721.548,452.136v-2.714c0-0.205-0.024-0.424-0.073-0.653
			c-0.049-0.229-0.137-0.443-0.264-0.639c-0.128-0.195-0.301-0.357-0.522-0.484c-0.22-0.127-0.495-0.191-0.829-0.191
			c0.333,0,0.609,0.065,0.829,0.191c0.221,0.127,0.394,0.289,0.522,0.484c0.127,0.196,0.215,0.41,0.264,0.639
			c0.049,0.229,0.073,0.448,0.073,0.653V452.136z"/>
	</g>
	<g>
		<path fill="none" stroke="#484748" stroke-width="0.1" stroke-miterlimit="10" d="M573.615,471.028
			c0.082,0,0.157-0.023,0.226-0.069c0.069-0.047,0.133-0.139,0.191-0.279l3.372-9.575h2.225l-3.72,10.531
			c-0.185,0.522-0.481,0.904-0.885,1.147c-0.406,0.243-0.887,0.365-1.443,0.365c-0.556,0-1.041-0.127-1.451-0.382
			c-0.412-0.255-0.704-0.632-0.878-1.13l-3.718-10.531h2.223l3.372,9.593c0.035,0.127,0.088,0.214,0.157,0.26
			c0.069,0.047,0.15,0.069,0.243,0.069H573.615z"/>
		<path fill="none" stroke="#484748" stroke-width="0.1" stroke-miterlimit="10" d="M589.431,461.105c0.973,0,1.7,0.255,2.181,0.764
			c0.481,0.511,0.721,1.171,0.721,1.981c0,0.591-0.148,1.122-0.443,1.59c-0.296,0.47-0.792,0.856-1.486,1.157l-6.57,2.867
			c-0.197,0.093-0.359,0.215-0.487,0.365c-0.127,0.151-0.191,0.325-0.191,0.522v0.642h8.881v2.086h-10.984v-2.747
			c0-0.184,0.023-0.399,0.069-0.642c0.047-0.243,0.139-0.489,0.279-0.738c0.139-0.249,0.335-0.496,0.591-0.74
			c0.255-0.243,0.584-0.451,0.99-0.625l6.604-2.868c0.221-0.092,0.386-0.222,0.496-0.39c0.109-0.168,0.164-0.332,0.164-0.495
			c0-0.185-0.052-0.337-0.156-0.453c-0.105-0.115-0.307-0.174-0.608-0.174h-7.978v-2.102H589.431z"/>
		<path fill="none" stroke="#484748" stroke-width="0.1" stroke-miterlimit="10" d="M605.368,461.105
			c0.683,0,1.266,0.089,1.747,0.269c0.481,0.18,0.871,0.429,1.174,0.747c0.3,0.32,0.518,0.693,0.651,1.122
			c0.133,0.429,0.201,0.892,0.201,1.39c0,0.429-0.105,0.868-0.314,1.321c-0.208,0.451-0.545,0.816-1.007,1.095
			c0.462,0.279,0.799,0.641,1.007,1.086c0.209,0.447,0.314,0.912,0.314,1.399c0,0.441-0.068,0.875-0.201,1.304
			c-0.133,0.429-0.351,0.808-0.651,1.139c-0.303,0.33-0.69,0.597-1.165,0.799s-1.059,0.304-1.755,0.304h-5.978v-11.974H605.368z
			 M601.493,466.006h4.188c0.406,0,0.735-0.136,0.991-0.409c0.255-0.272,0.382-0.605,0.382-1c0-0.184-0.038-0.361-0.113-0.529
			s-0.174-0.315-0.296-0.444c-0.122-0.127-0.263-0.228-0.426-0.304c-0.163-0.075-0.335-0.113-0.52-0.113h-4.206V466.006z
			 M601.493,470.992h4.188c0.429,0,0.765-0.144,1.008-0.434c0.243-0.289,0.365-0.642,0.365-1.059c0-0.185-0.038-0.362-0.113-0.53
			s-0.174-0.315-0.296-0.443c-0.122-0.129-0.263-0.229-0.426-0.304c-0.163-0.076-0.335-0.113-0.52-0.113h-4.206V470.992z"/>
		<path fill="none" stroke="#484748" stroke-width="0.1" stroke-miterlimit="10" d="M613.78,467.778l-4.433-6.673h2.503l2.972,4.796
			l2.955-4.796h2.502l-4.414,6.534v5.44h-2.085V467.778z"/>
		<path fill="none" stroke="#484748" stroke-width="0.1" stroke-miterlimit="10" d="M632.67,461.105c0.66,0,1.228,0.092,1.703,0.277
			s0.867,0.441,1.174,0.765c0.307,0.324,0.533,0.697,0.677,1.12c0.144,0.424,0.218,0.878,0.218,1.365
			c0,0.417-0.068,0.834-0.201,1.252c-0.133,0.417-0.351,0.791-0.651,1.12c-0.303,0.331-0.693,0.597-1.174,0.801
			c-0.481,0.202-1.064,0.304-1.747,0.304h-3.875v4.97h-2.103v-11.974H632.67z M628.795,466.006h4.188
			c0.383,0,0.707-0.136,0.973-0.409c0.267-0.272,0.4-0.605,0.4-1c0-0.184-0.038-0.361-0.113-0.529s-0.174-0.315-0.296-0.444
			c-0.122-0.127-0.263-0.228-0.426-0.304c-0.163-0.075-0.335-0.113-0.52-0.113h-4.206V466.006z"/>
		<path fill="none" stroke="#484748" stroke-width="0.1" stroke-miterlimit="10" d="M647.547,463.207h-6.309
			c-0.185,0-0.359,0.038-0.521,0.113c-0.163,0.076-0.304,0.177-0.426,0.304c-0.122,0.129-0.221,0.276-0.296,0.444
			c-0.076,0.168-0.113,0.345-0.113,0.529c0,0.395,0.127,0.728,0.382,1c0.255,0.273,0.586,0.409,0.991,0.409h6.291v2.103h-6.309
			c-0.185,0-0.359,0.037-0.521,0.113c-0.163,0.075-0.304,0.175-0.426,0.304c-0.122,0.127-0.221,0.274-0.296,0.443
			c-0.076,0.168-0.113,0.345-0.113,0.53c0,0.44,0.127,0.799,0.382,1.078c0.255,0.277,0.586,0.416,0.991,0.416h6.291v2.086h-5.978
			c-0.696,0-1.284-0.102-1.765-0.304s-0.868-0.472-1.164-0.808c-0.296-0.337-0.509-0.716-0.642-1.139
			c-0.134-0.423-0.201-0.854-0.201-1.296c0-0.487,0.099-0.952,0.296-1.399c0.197-0.446,0.528-0.808,0.991-1.086
			c-0.464-0.279-0.795-0.644-0.991-1.095c-0.197-0.453-0.296-0.892-0.296-1.321c0-0.509,0.075-0.982,0.226-1.416
			c0.15-0.436,0.379-0.809,0.686-1.122c0.307-0.313,0.699-0.556,1.174-0.73c0.475-0.174,1.037-0.26,1.686-0.26h5.978V463.207z"/>
		<path fill="none" stroke="#484748" stroke-width="0.1" stroke-miterlimit="10" d="M654.534,473.079
			c-3.626,0-5.44-1.993-5.44-5.978v-0.052c0.011-3.963,1.83-5.943,5.456-5.943h4.345v2.102h-4.884c-0.95,0-1.659,0.314-2.129,0.939
			s-0.704,1.617-0.704,2.971c0,2.584,0.939,3.875,2.816,3.875h4.884v2.086H654.534z"/>
		<path fill="none" stroke="#484748" stroke-width="0.1" stroke-miterlimit="10" d="M669.949,473.079l-3.372-9.524
			c-0.081-0.219-0.232-0.33-0.451-0.33c-0.221,0-0.371,0.11-0.453,0.33l-3.372,9.524h-2.223l3.718-10.428
			c0.185-0.52,0.481-0.909,0.887-1.164c0.406-0.255,0.887-0.382,1.443-0.382s1.037,0.127,1.443,0.382
			c0.404,0.255,0.7,0.644,0.885,1.164l3.72,10.428H669.949z"/>
		<path fill="none" stroke="#484748" stroke-width="0.1" stroke-miterlimit="10" d="M678.067,473.079
			c-3.626,0-5.44-1.993-5.44-5.978v-0.052c0.011-3.963,1.83-5.943,5.456-5.943h4.345v2.102h-4.884c-0.95,0-1.659,0.314-2.129,0.939
			s-0.704,1.617-0.704,2.971c0,2.584,0.939,3.875,2.816,3.875h4.884v2.086H678.067z"/>
		<path fill="none" stroke="#484748" stroke-width="0.1" stroke-miterlimit="10" d="M691.727,468.109h-5.561v4.97h-2.103v-11.974
			h2.103v4.901h5.561v-4.901h2.086v11.974h-2.086V468.109z"/>
		<path fill="none" stroke="#484748" stroke-width="0.1" stroke-miterlimit="10" d="M705.109,463.207H698.8
			c-0.185,0-0.359,0.038-0.52,0.113c-0.163,0.076-0.304,0.177-0.426,0.304c-0.122,0.129-0.221,0.276-0.296,0.444
			c-0.076,0.168-0.113,0.345-0.113,0.529c0,0.395,0.127,0.728,0.382,1c0.255,0.273,0.586,0.409,0.991,0.409h6.291v2.103H698.8
			c-0.185,0-0.359,0.037-0.52,0.113c-0.163,0.075-0.304,0.175-0.426,0.304c-0.122,0.127-0.221,0.274-0.296,0.443
			c-0.076,0.168-0.113,0.345-0.113,0.53c0,0.44,0.127,0.799,0.382,1.078c0.255,0.277,0.586,0.416,0.991,0.416h6.291v2.086h-5.978
			c-0.696,0-1.284-0.102-1.765-0.304c-0.481-0.202-0.868-0.472-1.164-0.808c-0.296-0.337-0.509-0.716-0.642-1.139
			c-0.134-0.423-0.201-0.854-0.201-1.296c0-0.487,0.099-0.952,0.296-1.399c0.197-0.446,0.528-0.808,0.991-1.086
			c-0.464-0.279-0.795-0.644-0.991-1.095c-0.197-0.453-0.296-0.892-0.296-1.321c0-0.509,0.075-0.982,0.226-1.416
			c0.15-0.436,0.379-0.809,0.686-1.122c0.307-0.313,0.699-0.556,1.174-0.73c0.475-0.174,1.037-0.26,1.686-0.26h5.978V463.207z"/>
		<path fill="none" stroke="#484748" stroke-width="0.1" stroke-miterlimit="10" d="M716.892,468.543
			c0,0.683-0.105,1.303-0.313,1.86c-0.208,0.556-0.522,1.031-0.939,1.424c-0.416,0.395-0.94,0.702-1.573,0.922
			c-0.631,0.219-1.363,0.33-2.198,0.33c-0.823,0-1.547-0.11-2.172-0.33c-0.625-0.221-1.153-0.53-1.581-0.931
			c-0.429-0.4-0.754-0.877-0.973-1.434c-0.221-0.556-0.331-1.164-0.331-1.824v-7.455h2.103v7.403c0,0.73,0.263,1.327,0.791,1.791
			c0.528,0.464,1.26,0.694,2.198,0.694h0.052c0.939,0,1.645-0.231,2.12-0.694c0.475-0.464,0.713-1.061,0.713-1.791v-7.403h2.103
			V468.543z"/>
	</g>
</g>
<g>
	
		<rect x="467.701" y="131.391" fill="none" stroke="#0000FF" stroke-width="0.01" stroke-miterlimit="10" width="13.748" height="41.073"/>
	
		<rect x="307.067" y="131.391" fill="none" stroke="#0000FF" stroke-width="0.01" stroke-miterlimit="10" width="13.747" height="41.073"/>
	<polygon fill="none" stroke="#0000FF" stroke-width="0.01" stroke-miterlimit="10" points="386.499,52.013 393.591,36.804 
		356.366,19.445 349.274,34.654 291.47,7.7 291.47,409.917 506.091,409.917 506.091,107.779 	"/>
	
		<rect x="467.701" y="344.129" fill="none" stroke="#0000FF" stroke-width="0.01" stroke-miterlimit="10" width="13.748" height="41.073"/>
	
		<rect x="307.067" y="344.129" fill="none" stroke="#0000FF" stroke-width="0.01" stroke-miterlimit="10" width="13.747" height="41.073"/>
	
		<rect x="320.815" y="225.571" fill="none" stroke="#0000FF" stroke-width="0.01" stroke-miterlimit="10" width="57.402" height="114.804"/>
</g>
<g>
	<g>
		
			<rect x="230.656" y="497.376" fill="none" stroke="#0000FF" stroke-width="0.01" stroke-miterlimit="10" width="14.173" height="14.174"/>
		
			<rect x="230.656" y="626.354" fill="none" stroke="#0000FF" stroke-width="0.01" stroke-miterlimit="10" width="14.173" height="14.174"/>
		
			<rect x="43.583" y="497.376" fill="none" stroke="#0000FF" stroke-width="0.01" stroke-miterlimit="10" width="14.173" height="14.174"/>
		
			<rect x="43.583" y="626.354" fill="none" stroke="#0000FF" stroke-width="0.01" stroke-miterlimit="10" width="14.173" height="14.174"/>
	</g>
	<polygon fill="none" stroke="#0000FF" stroke-width="0.01" stroke-miterlimit="10" points="260.414,669.233 277.209,669.233 
		277.209,628.16 260.414,628.16 260.414,456.495 277.209,456.495 277.209,415.422 260.414,415.422 260.414,326.388 27.997,326.388 
		27.997,415.422 11.203,415.422 11.203,456.495 27.997,456.495 27.997,628.16 11.203,628.16 11.203,669.233 27.997,669.233 
		27.997,694.208 260.414,694.208 	"/>
	<g>
		<circle fill="#FFFFFF" stroke="#0000FF" stroke-width="0.01" stroke-miterlimit="10" cx="87.514" cy="372.204" r="2.834"/>
		<circle fill="#FFFFFF" stroke="#0000FF" stroke-width="0.01" stroke-miterlimit="10" cx="200.898" cy="372.204" r="2.835"/>
	</g>
</g>
<g>
	<polygon fill="none" stroke="#0000FF" stroke-width="0.01" stroke-miterlimit="10" points="260.414,288.337 277.209,288.337 
		277.209,247.264 260.414,247.264 260.414,75.599 277.209,75.599 277.209,34.526 260.414,34.526 260.414,10.071 27.997,10.071 
		27.997,34.526 11.203,34.526 11.203,75.599 27.997,75.599 27.997,247.264 11.203,247.264 11.203,288.337 27.997,288.337 
		27.997,313.312 260.414,313.312 	"/>
	<g>
		<circle fill="#FFFFFF" stroke="#0000FF" stroke-width="0.01" stroke-miterlimit="10" cx="213.053" cy="234.054" r="2.835"/>
		<circle fill="#FFFFFF" stroke="#0000FF" stroke-width="0.01" stroke-miterlimit="10" cx="169.452" cy="86.495" r="2.835"/>
		<circle fill="#FFFFFF" stroke="#0000FF" stroke-width="0.01" stroke-miterlimit="10" cx="89.39" cy="86.329" r="2.835"/>
		<circle fill="#FFFFFF" stroke="#0000FF" stroke-width="0.01" stroke-miterlimit="10" cx="75.359" cy="237.054" r="2.835"/>
	</g>
</g>
<g>
	
		<rect x="539.618" y="131.391" fill="none" stroke="#0000FF" stroke-width="0.01" stroke-miterlimit="10" width="13.748" height="41.073"/>
	
		<rect x="700.252" y="131.391" fill="none" stroke="#0000FF" stroke-width="0.01" stroke-miterlimit="10" width="13.747" height="41.073"/>
	<polygon fill="none" stroke="#0000FF" stroke-width="0.01" stroke-miterlimit="10" points="634.568,52.013 627.476,36.804 
		664.701,19.445 671.793,34.654 729.597,7.7 729.597,409.917 514.976,409.917 514.976,107.779 	"/>
	
		<rect x="539.618" y="344.129" fill="none" stroke="#0000FF" stroke-width="0.01" stroke-miterlimit="10" width="13.748" height="41.073"/>
	
		<rect x="700.252" y="344.129" fill="none" stroke="#0000FF" stroke-width="0.01" stroke-miterlimit="10" width="13.747" height="41.073"/>
	
		<rect x="642.85" y="225.571" fill="none" stroke="#0000FF" stroke-width="0.01" stroke-miterlimit="10" width="57.402" height="114.804"/>
</g>
<g>
	<path fill="none" stroke="#0000FF" stroke-width="0.01" stroke-miterlimit="10" d="M404.416,530.404
		c0,2.047-0.914,3.879-2.357,5.111c-2.111,0-6.204-0.001-8.728-0.001c-1.442-1.232-2.355-3.064-2.355-5.11
		c0-3.711,3.009-6.72,6.72-6.72S404.416,526.693,404.416,530.404z"/>
	<circle fill="none" stroke="#0000FF" stroke-width="0.01" stroke-miterlimit="10" cx="397.696" cy="549.639" r="4.544"/>
	<circle fill="none" stroke="#0000FF" stroke-width="0.01" stroke-miterlimit="10" cx="397.696" cy="511.169" r="4.544"/>
	<circle fill="none" stroke="#0000FF" stroke-width="0.01" stroke-miterlimit="10" cx="416.93" cy="530.404" r="4.544"/>
	<circle fill="none" stroke="#0000FF" stroke-width="0.01" stroke-miterlimit="10" cx="378.461" cy="530.404" r="4.544"/>
	<circle fill="none" stroke="#0000FF" stroke-width="0.01" stroke-miterlimit="10" cx="397.695" cy="530.402" r="111.21"/>
</g>
<g>
	<path fill="none" stroke="#0000FF" stroke-width="0.01" stroke-miterlimit="10" d="M590.426,710.2c0,2.047-0.914,3.879-2.357,5.111
		c-2.111,0-6.204-0.001-8.728-0.001c-1.442-1.232-2.355-3.064-2.355-5.11c0-3.711,3.009-6.72,6.72-6.72
		S590.426,706.488,590.426,710.2z"/>
	<circle fill="none" stroke="#0000FF" stroke-width="0.01" stroke-miterlimit="10" cx="583.706" cy="729.434" r="4.544"/>
	<circle fill="none" stroke="#0000FF" stroke-width="0.01" stroke-miterlimit="10" cx="583.706" cy="690.965" r="4.544"/>
	<circle fill="none" stroke="#0000FF" stroke-width="0.01" stroke-miterlimit="10" cx="602.941" cy="710.2" r="4.544"/>
	<circle fill="none" stroke="#0000FF" stroke-width="0.01" stroke-miterlimit="10" cx="564.471" cy="710.2" r="4.544"/>
	<circle fill="none" stroke="#0000FF" stroke-width="0.01" stroke-miterlimit="10" cx="583.706" cy="710.198" r="111.21"/>
</g>
<g>
</g>
<g>
</g>
<g>
</g>
<g>
</g>
<g>
</g>
<g>
</g>
</svg>
